<svg xmlns="http://www.w3.org/2000/svg" viewBox="0 0 32 32" fill="currentColor"><circle cx="16" cy="16" r="16" fill="#2563eb"/><path d="M24.5 12.2c-0.6 0.3-1.2 0.5-1.9 0.6 0.7-0.4 1.2-1 1.5-1.7-0.7 0.4-1.4 0.7-2.2 0.9-0.7-0.7-1.7-1.1-2.7-1.1-2.1 0-3.7 2-3.2 4-3-0.1-5.7-1.6-7.5-3.8-0.3 0.5-0.5 1-0.5 1.6 0 1.1 0.6 2 1.5 2.6-0.6 0-1.1-0.2-1.6-0.4 0 0 0 0 0 0.1 0 1.5 1.1 2.7 2.5 3-0.5 0.1-1 0.2-1.5 0.1 0.4 1.2 1.6 2.1 3 2.1-1.1 0.9-2.5 1.4-4 1.4-0.3 0-0.6 0-0.9-0.1 1.4 0.9 3.1 1.5 4.9 1.5 5.9 0 9.1-5 9.1-9.3 0-0.1 0-0.2 0-0.3 0.6-0.4 1.2-1 1.6-1.6z" fill="#fff"/></svg>